<svg width="22" height="22" viewBox="0 0 22 22" fill="none" xmlns="http://www.w3.org/2000/svg">
<path d="M17.4166 6.41671C17.4166 5.40837 16.5916 4.58337 15.5833 4.58337H13.75C13.2458 4.58337 12.8333 4.99587 12.8333 5.50004C12.8333 6.00421 13.2458 6.41671 13.75 6.41671H15.5833V8.84587L12.3933 12.8334H9.16665V9.16671C9.16665 8.66254 8.75415 8.25004 8.24998 8.25004H5.49998C3.47415 8.25004 1.83331 9.89087 1.83331 11.9167V13.75C1.83331 14.2542 2.24581 14.6667 2.74998 14.6667H3.66665C3.66665 16.1884 4.89498 17.4167 6.41665 17.4167C7.93831 17.4167 9.16665 16.1884 9.16665 14.6667H12.3933C12.9525 14.6667 13.475 14.41 13.8233 13.9792L17.0133 9.99171C17.2791 9.66171 17.4166 9.25837 17.4166 8.84587V6.41671ZM6.41665 15.5834C5.91248 15.5834 5.49998 15.1709 5.49998 14.6667H7.33331C7.33331 15.1709 6.92081 15.5834 6.41665 15.5834Z" fill="#D98632"/>
<path d="M5.49998 5.5H8.24998C8.75415 5.5 9.16665 5.9125 9.16665 6.41667C9.16665 6.92083 8.75415 7.33333 8.24998 7.33333H5.49998C4.99581 7.33333 4.58331 6.92083 4.58331 6.41667C4.58331 5.9125 4.99581 5.5 5.49998 5.5ZM17.4166 11.9167C15.895 11.9167 14.6666 13.145 14.6666 14.6667C14.6666 16.1883 15.895 17.4167 17.4166 17.4167C18.9383 17.4167 20.1667 16.1883 20.1667 14.6667C20.1667 13.145 18.9383 11.9167 17.4166 11.9167ZM17.4166 15.5833C16.9125 15.5833 16.5 15.1708 16.5 14.6667C16.5 14.1625 16.9125 13.75 17.4166 13.75C17.9208 13.75 18.3333 14.1625 18.3333 14.6667C18.3333 15.1708 17.9208 15.5833 17.4166 15.5833Z" fill="#D98632"/>
<rect x="4" y="10" width="4" height="3" fill="white"/>
</svg>
