<svg width="22" height="22" viewBox="0 0 22 22" fill="none" xmlns="http://www.w3.org/2000/svg">
<path d="M11 12.6801C12.8531 12.6801 14.36 11.1731 14.36 9.32008C14.36 7.46704 12.8531 5.96008 11 5.96008C9.14697 5.96008 7.64001 7.46704 7.64001 9.32008C7.64001 11.1731 9.14697 12.6801 11 12.6801ZM11 7.64008C11.9265 7.64008 12.68 8.39356 12.68 9.32008C12.68 10.2466 11.9265 11.0001 11 11.0001C10.0735 11.0001 9.32001 10.2466 9.32001 9.32008C9.32001 8.39356 10.0735 7.64008 11 7.64008Z" fill="white"/>
<path d="M10.5128 19.2439C10.655 19.3454 10.8253 19.4 11 19.4C11.1747 19.4 11.345 19.3454 11.4872 19.2439C11.7426 19.0633 17.7444 14.7297 17.72 9.3201C17.72 5.61486 14.7053 2.6001 11 2.6001C7.29477 2.6001 4.28001 5.61486 4.28001 9.3159C4.25565 14.7297 10.2575 19.0633 10.5128 19.2439ZM11 4.2801C13.7796 4.2801 16.04 6.54054 16.04 9.3243C16.0577 13.0522 12.3541 16.3996 11 17.4975C9.64677 16.3988 5.94237 13.0505 5.96001 9.3201C5.96001 6.54054 8.22045 4.2801 11 4.2801Z" fill="white"/>
</svg>
