<svg width="24" height="24" viewBox="0 0 24 24" fill="none" xmlns="http://www.w3.org/2000/svg">
<path d="M5.571 7.88696C5.2845 5.99996 6.615 4.30497 8.6475 3.68397C9.00818 3.57369 9.39734 3.60508 9.73569 3.77174C10.074 3.93841 10.3361 4.2278 10.4685 4.58097L11.121 6.32097C11.226 6.60088 11.245 6.90581 11.1755 7.1966C11.1061 7.48739 10.9512 7.75078 10.731 7.95297L8.79 9.73046C8.69432 9.81826 8.62303 9.92936 8.58307 10.0529C8.54311 10.1765 8.53585 10.3083 8.562 10.4355L8.58 10.5135L8.6265 10.7085C8.86789 11.6559 9.23569 12.5666 9.72 13.416C10.2476 14.3185 10.9023 15.1404 11.664 15.8565L11.724 15.9105C11.8209 15.9965 11.9384 16.0559 12.0651 16.083C12.1918 16.1101 12.3234 16.1039 12.447 16.065L14.9565 15.2745C15.2417 15.1849 15.5471 15.1826 15.8337 15.2679C16.1202 15.3531 16.3747 15.5221 16.5645 15.753L17.7525 17.1945C18.2475 17.7945 18.1875 18.6765 17.619 19.206C16.0635 20.6565 13.9245 20.9535 12.4365 19.758C10.6125 18.2867 9.07493 16.4923 7.9005 14.4645C6.71653 12.4382 5.92569 10.2066 5.5695 7.88696H5.571ZM10.1355 10.5345L11.7435 9.05847C12.1843 8.65427 12.4941 8.12757 12.6334 7.54598C12.7726 6.96439 12.7349 6.35445 12.525 5.79447L11.874 4.05447C11.6075 3.34384 11.0801 2.76156 10.3992 2.42627C9.71835 2.09099 8.93525 2.02794 8.2095 2.24997C5.685 3.02247 3.6585 5.28596 4.0875 8.11347C4.3875 10.0875 5.079 12.5985 6.6045 15.2205C7.87157 17.407 9.53018 19.3417 11.4975 20.928C13.7295 22.7205 16.7085 22.1085 18.6435 20.3055C19.7925 19.2345 19.9095 17.4555 18.912 16.2435L17.724 14.8005C17.344 14.3392 16.8348 14.0019 16.2618 13.832C15.6888 13.662 15.0781 13.667 14.508 13.8465L12.4245 14.502C11.8866 13.9473 11.4154 13.3316 11.0205 12.6675C10.6391 11.996 10.3418 11.2801 10.1355 10.536V10.5345Z" fill="white"/>
</svg>
